 <svg  version="1.0" xmlns="http://www.w3.org/2000/svg"  width="254.000000pt" height="198.000000pt" viewBox="0 0 254.000000 198.000000"  preserveAspectRatio="xMidYMid meet">  <g transform="translate(0.000000,198.000000) scale(0.100000,-0.100000)" fill="#ff7b42" stroke="none"> <path d="M600 1730 c-13 -9 -13 -10 0 -10 13 0 13 -1 0 -10 -8 -5 -10 -10 -5 -10 6 0 17 5 25 10 13 9 13 10 0 10 -13 0 -13 1 0 10 8 5 11 10 5 10 -5 0 -17 -5 -25 -10z"/> <path d="M1917 1725 c3 -8 9 -12 14 -9 12 7 11 11 -5 17 -10 4 -13 1 -9 -8z"/> <path d="M2100 1730 c-16 -10 -13 -11 32 -14 15 -1 24 2 21 6 -2 5 -14 6 -25 2 -14 -4 -18 -2 -14 5 9 13 6 14 -14 1z"/> <path d="M465 1720 c-16 -7 -17 -9 -3 -9 9 -1 20 4 23 9 7 11 7 11 -20 0z"/> <path d="M2275 1720 c-3 -5 -1 -10 4 -10 6 0 11 5 11 10 0 6 -2 10 -4 10 -3 0 -8 -4 -11 -10z"/> <path d="M1877 1682 c-15 -15 -27 -32 -27 -36 0 -7 9 1 44 42 27 32 15 27 -17 -6z"/> <path d="M282 1656 c-34 -31 -38 -61 -7 -50 8 4 13 9 10 13 -2 5 9 18 26 30 22 16 34 19 47 12 10 -7 12 -11 4 -11 -7 0 -10 -5 -7 -10 5 -8 11 -7 21 1 7 6 11 15 8 20 -3 5 0 9 5 9 18 0 12 -15 -14 -40 -21 -20 -25 -21 -31 -7 -3 9 -3 21 1 26 3 7 0 8 -9 5 -9 -3 -14 -11 -13 -17 1 -7 -6 -11 -17 -9 -10 2 -16 0 -13 -5 3 -5 -1 -19 -9 -33 -7 -14 -13 -19 -14 -12 0 7 -4 11 -9 7 -6 -3 1 -27 15 -54 28 -57 30 -90 8 -133 -12 -24 -15 -47 -10 -97 3 -36 10 -147 15 -246 11 -210 20 -293 33 -318 5 -11 11 -33 13 -51 3 -36 39 -121 56 -131 6 -4 8 -13 5 -21 -3 -9 1 -14 12 -15 11 0 12 -2 4 -6 -7 -3 -24 -2 -38 1 -19 5 -23 10 -16 19 8 9 3 12 -15 14 -18 1 -22 -2 -12 -7 11 -7 10 -10 -3 -15 -22 -9 -41 3 -31 18 10 17 11 47 1 41 -12 -8 -10 10 5 26 10 12 9 12 -3 3 -24 -18 -50 8 -50 48 0 52 -12 109 -21 104 -4 -3 -5 11 -2 31 5 28 3 35 -6 30 -9 -6 -10 5 -5 43 4 31 3 51 -3 51 -6 0 -10 14 -11 30 0 17 -4 39 -7 50 -3 11 -3 20 2 20 4 0 9 46 10 103 2 151 7 236 14 231 4 -2 7 6 8 19 1 12 3 36 4 52 1 17 4 32 7 35 17 16 28 58 17 69 -6 6 -7 11 -3 11 5 0 3 7 -4 15 -9 11 -10 18 -1 28 14 18 4 27 -31 27 -73 0 -128 -51 -163 -150 -27 -76 -45 -191 -44 -280 1 -72 3 -79 10 -45 4 22 8 60 9 85 0 29 3 40 9 31 7 -11 9 -11 14 0 3 8 6 3 6 -10 1 -13 4 -22 7 -18 3 3 0 31 -7 62 -10 45 -10 61 0 77 6 10 9 28 6 39 -4 13 0 28 10 39 9 10 14 23 11 28 -3 6 2 9 11 7 12 -1 17 -10 15 -26 -1 -14 1 -19 6 -12 5 8 13 9 22 3 8 -6 11 -10 5 -10 -5 0 -10 -23 -10 -51 0 -28 -3 -53 -6 -55 -7 -4 -3 -134 5 -184 5 -26 4 -30 -3 -15 -14 30 -3 -108 21 -265 11 -74 21 -143 21 -152 1 -9 5 -14 10 -11 5 3 6 -5 3 -18 -3 -13 -3 -18 0 -11 9 19 26 14 20 -5 -3 -10 -2 -24 3 -31 18 -29 18 14 0 68 -10 30 -26 91 -34 135 -22 107 -30 409 -15 510 11 70 10 81 -6 111 -18 32 -18 35 -1 51 17 17 19 17 31 1 12 -16 14 -16 24 7 13 28 38 35 27 8 -35 -84 -48 -129 -61 -216 -8 -55 -13 -105 -11 -111 2 -6 9 18 15 54 9 57 10 49 5 -65 -6 -153 10 -355 38 -462 10 -42 16 -85 13 -96 -4 -14 -3 -17 6 -12 9 5 11 4 6 -3 -4 -7 -2 -10 6 -7 8 3 21 -8 32 -27 18 -33 18 -33 -2 -9 -17 20 -20 21 -25 7 -8 -22 16 -60 47 -74 13 -6 81 -11 152 -11 110 0 134 3 160 20 53 32 83 94 109 219 12 62 13 64 20 32 4 -19 23 -49 41 -69 l33 -35 138 7 c76 3 154 10 173 15 19 5 61 14 93 20 34 7 69 22 87 36 23 20 33 23 49 15 50 -27 168 -5 212 39 16 15 40 31 55 34 48 12 112 64 124 100 22 68 35 50 48 -68 21 -194 58 -300 121 -341 33 -22 46 -24 170 -24 118 0 138 3 162 20 15 11 30 28 34 38 4 13 19 20 58 24 42 5 58 13 83 40 60 65 105 234 102 385 -1 82 -2 84 -8 32 l-7 -55 -3 50 c-2 28 -2 66 -1 85 1 19 0 32 -4 28 -10 -10 -15 -168 -5 -168 7 0 8 -16 1 -63 0 -5 -5 -5 -11 -2 -13 8 -13 3 0 -30 7 -19 7 -24 -2 -19 -8 5 -9 2 -4 -11 4 -10 0 -28 -10 -43 -15 -22 -15 -24 -1 -19 14 5 15 2 5 -21 -13 -30 -37 -62 -47 -60 -19 2 -27 -4 -28 -22 -1 -16 1 -17 12 -7 7 6 11 15 8 20 -2 4 -2 7 1 7 3 0 10 -10 17 -21 8 -16 8 -20 -1 -14 -7 4 -14 -1 -17 -14 -5 -18 -8 -19 -21 -9 -13 11 -15 10 -10 -10 4 -15 1 -25 -12 -32 -24 -13 -63 -13 -55 0 4 6 11 8 16 5 5 -4 19 -3 32 1 21 7 21 7 2 14 -11 4 -27 4 -36 -1 -8 -4 -28 -6 -44 -5 -18 2 -36 -4 -49 -16 -18 -16 -18 -18 -3 -12 16 6 16 3 -4 -35 -12 -23 -28 -41 -38 -41 -14 0 -14 2 -1 11 12 9 12 10 -4 5 -10 -4 -25 -1 -34 6 -14 12 -14 10 -2 -12 13 -25 13 -25 -8 -7 -11 10 -21 14 -23 8 -3 -7 -9 -7 -19 -1 -13 9 -13 10 1 10 16 0 59 43 59 60 0 5 8 14 18 19 12 7 13 10 3 11 -12 0 -11 3 2 18 8 9 18 38 20 64 3 26 9 53 14 60 10 16 12 45 19 376 4 195 3 276 -5 286 -6 7 -8 22 -4 31 4 13 3 16 -5 11 -7 -4 -12 -3 -12 1 0 5 9 14 21 21 13 8 19 19 15 30 -6 15 -5 15 7 0 8 -10 17 -15 20 -11 4 3 7 -14 7 -40 0 -25 4 -48 9 -51 5 -3 11 -25 15 -48 3 -24 8 -61 11 -83 2 -22 9 -65 13 -95 5 -30 5 -86 1 -125 -4 -38 -6 -95 -3 -125 3 -40 2 -49 -5 -35 -8 16 -10 11 -9 -25 1 -61 -17 -163 -35 -200 -11 -22 -12 -32 -3 -39 17 -14 40 -17 41 -6 0 6 11 29 23 52 12 24 20 43 17 43 -3 0 3 12 12 27 10 15 12 24 6 20 -8 -5 -13 -3 -13 7 0 8 4 16 9 18 6 2 14 48 18 103 9 107 9 448 1 503 -4 30 -3 31 12 17 17 -16 30 -11 30 12 0 7 -6 13 -14 13 -11 0 -13 7 -6 29 7 24 5 30 -14 39 -20 9 -20 9 4 9 19 0 29 -9 42 -35 21 -44 16 -55 -7 -15 -15 26 -15 27 -9 3 3 -14 14 -42 25 -63 10 -21 19 -44 19 -51 0 -8 7 -27 15 -42 20 -39 19 -67 -1 -34 l-15 25 5 -25 c3 -14 6 -34 7 -45 0 -20 0 -20 10 0 7 16 8 12 5 -15 -3 -19 -7 -44 -9 -55 -2 -11 -2 -14 0 -7 8 23 22 12 26 -20 2 -18 5 1 5 44 3 142 -44 316 -103 375 -22 22 -45 33 -78 38 -36 6 -56 16 -85 45 l-38 38 -130 0 c-95 0 -138 -4 -162 -15 -61 -29 -94 -97 -121 -257 l-17 -98 -38 71 c-20 39 -45 75 -56 81 -10 5 -41 10 -69 10 -37 0 -56 6 -78 24 -40 33 -69 40 -118 26 -40 -11 -45 -10 -86 17 -54 36 -116 38 -178 5 -36 -19 -53 -22 -91 -17 -61 8 -105 -10 -157 -66 -73 -77 -103 -121 -113 -163 -34 -132 -52 -127 -68 17 -14 132 -44 248 -77 298 -37 56 -71 67 -219 67 l-128 0 -36 -32z m1938 -2 c0 -3 -4 -3 -9 0 -4 3 -17 -1 -27 -9 -18 -13 -17 -14 11 -9 33 6 30 -4 -3 -11 -12 -2 -28 5 -38 16 -10 11 -14 20 -9 19 25 -5 46 1 39 11 -4 8 0 8 15 0 11 -7 21 -14 21 -17z m-1672 7 c11 -7 10 -10 -3 -15 -9 -3 -22 -3 -28 1 -7 4 -6 -1 2 -10 9 -11 10 -17 2 -17 -6 0 -11 5 -11 11 0 8 -4 8 -15 -1 -8 -6 -18 -9 -24 -6 -5 3 -11 1 -13 -6 -3 -7 -7 -5 -11 6 -4 10 -3 15 3 11 6 -3 11 2 11 12 1 17 2 17 6 1 2 -10 8 -18 13 -18 5 0 7 8 4 18 -5 14 -4 14 5 2 8 -12 11 -12 17 3 7 19 21 21 42 8z m1442 5 c0 -3 -4 -8 -10 -11 -5 -3 -10 -1 -10 4 0 6 5 11 10 11 6 0 10 -2 10 -4z m29 -29 c0 -9 -2 -8 -6 1 -2 6 -10 9 -15 6 -7 -4 -8 -2 -4 5 9 13 26 5 25 -12z m84 6 c-3 -9 0 -11 10 -7 10 3 22 -4 33 -23 10 -15 19 -30 21 -32 2 -2 12 4 23 14 19 17 21 17 40 0 26 -24 25 -41 -5 -82 -24 -30 -25 -36 -15 -70 17 -55 24 -419 11 -541 -15 -144 -38 -248 -67 -304 -27 -54 -46 -67 -69 -48 -9 7 -15 8 -15 2 0 -5 -10 -12 -22 -15 -12 -4 -19 -9 -16 -12 3 -4 16 -1 28 5 13 7 20 7 16 2 -3 -6 0 -12 6 -15 21 -7 -45 -1 -75 7 -26 8 -27 9 -9 25 21 18 42 72 42 110 l1 26 15 -25 c8 -14 13 -18 11 -10 -2 8 2 65 9 125 20 161 29 544 15 634 -8 50 -8 77 -1 86 5 6 8 14 6 16 -2 2 2 10 9 16 9 8 16 9 20 3 3 -6 1 -10 -6 -10 -8 0 -6 -5 4 -12 12 -9 21 -40 29 -95 7 -46 15 -83 18 -83 4 0 5 -13 2 -28 -2 -15 0 -50 5 -77 6 -31 6 -78 -1 -124 -7 -55 -7 -76 1 -78 8 -3 9 -14 3 -33 -5 -17 -8 -63 -8 -103 1 -40 -4 -82 -11 -94 -6 -12 -11 -30 -11 -41 0 -27 -32 -126 -43 -133 -5 -4 -6 -12 -2 -18 4 -7 1 -19 -6 -27 -6 -8 -9 -17 -6 -21 12 -12 59 107 78 200 14 65 22 159 28 322 9 241 5 327 -11 290 -6 -15 -7 -14 -3 8 7 35 -4 99 -16 91 -5 -3 -6 1 -3 9 7 20 -32 120 -59 149 -22 23 -64 28 -50 5 4 -7 -1 -6 -10 2 -26 20 -21 26 22 26 27 0 37 -3 34 -12z m-1676 -15 c-88 -199 -97 -261 -86 -552 6 -168 14 -260 28 -324 30 -138 79 -238 95 -196 3 8 1 23 -4 32 -9 14 -10 12 -6 -8 5 -23 4 -23 -6 3 -7 15 -15 27 -20 27 -4 0 -8 8 -8 18 0 9 -7 31 -16 47 -10 18 -16 55 -16 94 0 43 -4 59 -10 50 -6 -10 -8 1 -4 31 3 28 2 38 -3 25 -5 -11 -9 74 -9 200 0 121 3 225 7 230 15 19 21 46 10 39 -8 -4 -9 1 -3 17 4 13 7 32 6 42 0 11 4 15 11 10 7 -4 5 2 -3 12 -9 11 -10 16 -2 11 8 -5 12 2 12 23 0 21 5 31 16 31 8 0 12 5 9 10 -4 6 -11 7 -17 4 -6 -4 -5 2 2 15 6 12 15 19 21 16 5 -4 7 -11 4 -16 -4 -5 -1 -9 5 -9 6 0 8 -4 5 -10 -3 -5 -1 -10 6 -10 8 0 9 -10 4 -32 -12 -60 -17 -141 -17 -298 0 -216 3 -270 13 -270 5 0 9 -19 10 -42 1 -61 23 -191 31 -183 3 4 5 -15 3 -42 -3 -29 -1 -41 4 -29 5 14 10 16 15 8 4 -7 5 -16 2 -20 -3 -5 4 -15 15 -23 11 -8 24 -21 29 -29 6 -12 -1 -16 -37 -18 -41 -2 -45 0 -40 18 5 20 -8 29 -15 9 -2 -7 -12 -7 -31 0 -34 13 -72 89 -91 183 -7 35 -15 55 -17 44 -7 -31 -13 158 -14 394 0 152 4 241 13 273 12 45 11 49 -13 81 -29 38 -31 58 -9 81 15 15 18 15 41 0 14 -9 26 -15 27 -13 1 2 10 15 19 31 17 27 44 39 34 15z m153 3 c0 -5 -11 -33 -25 -63 -35 -77 -63 -195 -75 -322 -9 -104 -7 -147 4 -95 11 46 28 154 30 181 0 14 4 30 9 34 4 4 7 17 7 28 0 17 2 18 10 6 7 -10 10 -11 10 -2 0 7 -7 15 -16 19 -10 4 -12 8 -5 13 6 3 14 23 16 44 8 62 46 123 68 109 5 -3 1 9 -7 26 -13 25 -14 31 -3 31 50 0 102 -163 120 -377 4 -47 2 -53 -14 -53 -16 0 -19 8 -19 43 0 104 -39 247 -66 247 -18 0 -18 -10 -1 -35 16 -24 35 -106 43 -192 7 -67 6 -69 -50 -63 -11 1 -17 -3 -14 -12 3 -7 16 -14 29 -14 13 -1 33 -5 44 -9 20 -8 20 -8 0 8 -20 16 -20 16 3 17 12 0 22 -4 22 -9 0 -5 8 -7 19 -4 10 3 22 0 25 -6 4 -6 18 -11 32 -11 15 0 23 4 19 10 -4 6 -12 7 -18 4 -7 -4 -4 2 6 12 17 18 17 18 33 -4 8 -12 21 -22 27 -22 7 0 6 4 -3 11 -13 9 -12 10 2 5 20 -6 33 24 23 55 -5 14 -4 19 4 15 7 -4 9 -1 5 8 -5 12 -8 12 -23 -2 -10 -9 -15 -23 -13 -30 4 -11 6 -11 13 0 7 10 9 9 9 -3 0 -9 -9 -19 -19 -22 -16 -4 -19 1 -19 29 0 19 3 32 8 29 10 -6 32 73 24 88 -5 8 -3 8 9 -1 14 -12 16 -11 12 7 -2 12 0 19 4 17 13 -8 84 71 76 84 -6 9 -2 9 15 0 13 -7 20 -8 16 -2 -8 13 32 42 57 42 19 0 83 -57 74 -66 -3 -3 -19 2 -37 11 -23 12 -30 21 -25 33 5 15 4 15 -12 0 -16 -17 -16 -18 2 -32 19 -14 18 -15 -12 -11 -37 5 -42 -4 -13 -23 17 -10 20 -10 20 2 0 14 29 14 66 2 6 -2 16 4 22 14 10 16 7 22 -15 38 -19 14 -23 21 -13 27 9 5 11 4 6 -3 -4 -7 -2 -12 3 -12 18 0 26 5 23 13 -1 4 9 7 23 7 14 0 25 4 25 8 0 10 45 32 65 32 8 0 24 -8 36 -17 26 -22 53 -73 39 -73 -5 0 -10 -4 -10 -10 0 -5 6 -10 13 -10 15 0 21 46 7 55 -6 4 -8 11 -5 16 4 5 -1 9 -9 9 -8 0 -18 5 -22 12 -5 8 -2 9 11 4 15 -5 16 -4 5 9 -7 8 -8 15 -2 15 5 0 15 -13 22 -30 17 -40 36 -56 53 -42 7 6 22 11 32 11 11 0 34 3 51 7 26 5 37 0 68 -27 20 -19 36 -43 36 -54 1 -18 1 -19 11 -2 5 9 8 21 5 25 -2 4 19 7 47 5 34 -1 53 -7 59 -18 5 -8 12 -14 16 -11 4 2 8 -7 8 -20 2 -32 -2 -30 -21 6 -17 33 -27 37 -48 16 -8 -9 -19 -11 -27 -6 -8 5 -18 6 -22 4 -13 -8 -9 -25 5 -23 28 3 39 -2 33 -17 -4 -10 -2 -13 6 -8 7 4 8 3 4 -5 -4 -6 -15 -10 -24 -9 -10 2 -17 -5 -19 -17 -2 -15 -1 -16 5 -5 4 8 14 14 22 14 8 -1 23 -2 33 -3 9 0 17 -9 18 -18 0 -11 3 -13 6 -5 2 6 11 12 19 12 8 0 14 7 14 16 0 14 2 14 15 0 8 -8 15 -17 15 -20 0 -2 5 -17 11 -33 7 -15 13 -41 15 -57 3 -16 7 -32 10 -35 4 -3 5 8 2 26 -2 18 0 34 6 36 7 3 11 -10 11 -32 0 -28 4 -36 20 -39 15 -2 17 -1 6 6 -13 9 -18 103 -7 140 3 10 7 40 11 67 13 110 68 235 103 235 12 0 11 -33 -1 -41 -5 -4 -5 -9 2 -13 6 -4 11 -2 11 4 0 6 5 8 11 4 8 -4 7 -9 -2 -15 -11 -7 -11 -11 -2 -17 6 -4 15 -19 18 -35 4 -15 10 -25 14 -23 4 3 7 -3 8 -12 1 -9 5 -39 10 -67 4 -27 8 -84 8 -125 0 -41 1 -67 3 -57 6 29 22 8 22 -29 0 -19 4 -34 9 -34 5 0 12 -10 14 -22 2 -13 2 9 0 47 -10 149 -41 290 -89 387 -9 21 -14 41 -10 45 8 9 45 -35 46 -54 0 -8 8 -5 21 8 18 18 23 19 42 6 31 -21 32 -40 2 -76 -27 -31 -27 -31 -13 -104 17 -91 17 -468 0 -588 -23 -162 -57 -259 -99 -287 -21 -13 -25 -12 -52 16 -17 16 -33 27 -37 23 -4 -3 -4 -1 -1 5 4 7 0 30 -8 53 -16 47 -35 145 -41 211 -2 25 -6 65 -9 90 -4 28 -2 40 3 32 5 -8 13 -12 18 -10 5 1 10 -15 12 -37 4 -59 32 -186 49 -218 9 -19 11 -33 4 -45 -9 -15 -10 -15 -10 3 0 11 -9 45 -21 75 -16 41 -20 46 -15 20 8 -43 13 -65 15 -65 3 0 12 -40 13 -58 1 -18 2 -18 14 0 7 10 20 26 29 36 10 9 13 17 7 17 -6 0 -18 19 -26 43 -14 35 -21 73 -40 217 -1 11 7 15 31 13 29 -1 35 3 48 32 17 41 17 127 1 175 -11 31 -16 35 -47 35 -25 0 -35 4 -33 15 21 179 35 238 59 263 11 11 13 86 3 93 -5 3 -6 -2 -3 -10 6 -14 -5 -21 -28 -17 -5 0 -8 -4 -8 -10 0 -6 7 -9 15 -6 24 10 29 -13 6 -34 -30 -29 -51 -106 -65 -246 -4 -41 11 -61 49 -65 21 -2 31 -10 36 -28 12 -44 10 -135 -4 -155 -16 -20 -87 -32 -87 -14 0 6 -7 8 -15 5 -52 -21 -51 -21 -36 -3 12 15 11 17 -10 15 -17 -2 -23 1 -19 12 2 8 6 44 8 80 2 36 9 68 15 72 8 5 5 8 -6 8 -10 0 -16 4 -13 9 8 13 -4 42 -15 35 -5 -3 -7 -10 -4 -15 4 -5 -1 -9 -9 -9 -9 0 -16 4 -16 8 0 10 -66 9 -76 -1 -4 -4 -14 -7 -22 -7 -9 0 -23 -7 -33 -16 -16 -15 -17 -13 -9 18 22 85 22 85 6 53 -12 -25 -15 -27 -16 -10 -1 11 -2 29 -1 40 2 20 2 20 -11 0 -15 -24 -20 -47 -8 -40 4 2 7 -13 6 -34 0 -30 -4 -37 -16 -33 -8 3 -18 10 -21 15 -11 16 -118 18 -150 2 -29 -15 -29 -15 -29 14 0 41 9 61 29 61 14 0 14 2 1 10 -11 7 -18 5 -26 -5 -10 -13 -14 -12 -29 5 -19 21 -35 19 -17 -2 16 -20 26 -88 13 -88 -6 0 -11 3 -11 8 0 4 -30 7 -67 7 -49 0 -71 -4 -80 -15 -17 -22 -26 -6 -27 49 -1 38 -4 47 -14 39 -7 -6 -10 -19 -7 -28 3 -10 1 -29 -4 -44 -13 -32 -4 -35 9 -3 l9 22 0 -22 c1 -13 -8 -27 -20 -33 -20 -11 -20 -10 -13 36 5 34 4 45 -5 40 -6 -4 -11 -15 -11 -24 0 -14 -2 -15 -10 -2 -13 21 -24 5 -11 -18 10 -18 7 -19 -32 -16 -23 2 -44 9 -46 15 -2 8 -6 7 -11 -1 -5 -7 -19 -14 -32 -14 -12 -1 -29 -5 -35 -9 -7 -5 -18 -5 -23 -2 -6 3 -13 -1 -16 -9 -3 -9 -11 -13 -17 -9 -6 4 -7 1 -3 -6 5 -7 0 -19 -10 -27 -17 -14 -17 -15 -1 -10 9 3 17 1 17 -4 0 -6 -4 -10 -8 -10 -5 0 -6 -20 -2 -45 6 -42 -1 -58 -15 -35 -8 13 -25 3 -24 -13 0 -8 2 -8 6 1 6 16 33 -3 29 -21 -1 -7 -1 -9 1 -4 8 13 21 7 25 -11 4 -13 -1 -18 -15 -19 -11 -1 -23 -7 -27 -14 -6 -8 -9 -8 -14 0 -4 6 -12 11 -19 11 -6 0 -2 -7 9 -15 22 -17 12 -20 -17 -5 -13 7 -19 7 -19 0 0 -5 7 -10 17 -10 13 0 11 -5 -8 -23 -13 -13 -25 -23 -26 -22 -1 0 3 20 8 44 6 28 6 48 0 54 -10 10 -16 -21 -26 -134 -14 -154 -68 -291 -117 -297 -51 -6 -92 93 -120 286 -17 122 -17 487 1 584 l14 77 -27 32 c-31 36 -30 55 1 76 19 13 24 12 42 -6 13 -13 21 -16 21 -8 0 17 29 57 41 57 5 0 9 -4 9 -9z m1675 -14 c1 -7 7 -10 15 -9 8 2 12 0 8 -4 -4 -4 4 -17 17 -28 l25 -22 -24 0 c-14 0 -23 4 -20 8 3 4 -6 19 -20 33 -14 14 -21 25 -15 25 6 0 7 6 3 13 -4 7 -3 9 2 4 5 -5 9 -14 9 -20z m85 -37 c0 -5 6 -7 14 -4 8 3 17 0 21 -5 3 -6 10 -9 15 -6 5 3 12 1 15 -5 4 -6 3 -9 -2 -8 -4 1 -18 -3 -29 -10 -18 -9 -24 -9 -34 3 -7 8 -9 15 -4 15 5 1 -2 7 -16 15 -25 14 -25 14 -2 15 12 0 22 -4 22 -10z m-2174 -19 c-13 -12 -18 -13 -28 -2 -11 10 -9 11 6 5 12 -5 17 -4 13 3 -3 5 1 10 9 10 13 0 13 -2 0 -16z m52 0 c-6 -11 -20 -19 -29 -18 -27 2 0 27 39 36 1 1 -3 -8 -10 -18z m2114 -45 c9 -22 12 -23 25 -10 12 11 18 12 29 3 19 -15 18 -38 -2 -60 -14 -16 -15 -28 -4 -104 17 -123 6 -411 -21 -535 -11 -52 -21 -102 -21 -110 -2 -18 -36 -56 -44 -48 -3 4 1 17 10 30 39 61 66 405 46 592 -6 49 -8 91 -6 94 3 2 8 -24 12 -59 5 -35 10 -56 12 -46 6 27 -18 158 -28 152 -4 -3 -6 5 -2 17 3 14 1 19 -6 14 -8 -4 -10 -2 -6 8 3 8 -2 28 -10 45 -19 35 -19 41 -6 41 6 0 15 -11 22 -24z m-2218 2 c-5 -8 -2 -9 9 -5 23 9 21 0 -2 -13 -16 -8 -19 -7 -16 8 5 23 4 22 11 22 3 0 2 -5 -2 -12z m1582 -140 c21 -40 10 -48 -23 -16 -16 17 -23 32 -19 43 8 21 22 12 42 -27z m-1405 -19 c-9 -22 -10 -22 -10 -3 -1 11 2 24 6 27 12 12 14 0 4 -24z m-94 -26 c-3 -10 -5 -2 -5 17 0 19 2 27 5 18 2 -10 2 -26 0 -35z m1606 -31 c4 9 6 9 6 1 1 -6 -3 -14 -8 -18 -11 -6 -41 21 -41 37 0 6 9 1 19 -11 14 -16 21 -18 24 -9z m-1456 -24 c-3 -7 -5 -2 -5 12 0 14 2 19 5 13 2 -7 2 -19 0 -25z m1850 -5 c-3 -10 -5 -4 -5 12 0 17 2 24 5 18 2 -7 2 -21 0 -30z m-2147 17 c0 -5 -4 -10 -10 -10 -5 0 -10 5 -10 10 0 6 5 10 10 10 6 0 10 -4 10 -10z m2000 -21 c0 -5 -4 -9 -10 -9 -5 0 -10 7 -10 16 0 8 5 12 10 9 6 -3 10 -10 10 -16z m-326 -85 c12 -5 16 -21 16 -68 0 -54 -5 -82 -25 -174 -9 -37 -81 -82 -131 -82 -24 0 -45 4 -48 9 -3 5 16 7 42 5 42 -3 44 -3 14 5 -19 5 -39 14 -45 21 -10 10 -8 11 8 5 37 -15 82 -17 104 -5 22 11 20 30 -2 30 -7 0 -6 -4 3 -10 11 -7 2 -10 -31 -10 -69 0 -73 10 -63 138 l9 107 35 17 c35 18 85 23 114 12z m-399 -88 c9 -108 -2 -215 -25 -254 -23 -37 -83 -59 -127 -46 -26 7 -24 8 22 14 80 9 98 27 23 22 -46 -3 -68 1 -83 12 -19 14 -17 14 19 5 44 -12 100 -4 130 17 20 14 19 15 -9 8 -83 -21 -151 4 -159 59 -3 18 -11 74 -18 124 l-14 93 41 14 c22 8 74 15 117 15 l76 1 7 -84z m208 69 c21 -9 22 -66 3 -176 -17 -96 -41 -146 -77 -164 -32 -17 -96 -20 -119 -5 -10 6 1 9 36 8 27 -1 57 3 66 8 11 6 -3 9 -46 8 -45 0 -63 3 -63 13 0 16 -3 15 35 2 32 -11 105 2 117 21 10 17 16 60 8 58 -5 0 -16 2 -25 6 -9 4 -25 3 -35 -3 -15 -10 -14 -10 8 -5 17 3 30 1 35 -7 5 -9 2 -11 -9 -6 -9 3 -18 0 -21 -9 -4 -11 0 -13 22 -8 l27 7 -24 -22 c-28 -24 -25 -24 -73 -10 -45 12 -46 14 -51 171 -2 77 0 119 7 123 15 6 156 -1 179 -10z m-474 -13 c5 -10 14 -54 21 -99 12 -90 4 -125 -31 -144 -30 -16 -124 -7 -147 14 -27 24 -42 83 -42 160 0 66 0 66 33 76 17 5 60 10 94 10 50 1 64 -2 72 -17z m-612 -114 c-2 -13 -4 -3 -4 22 0 25 2 35 4 23 2 -13 2 -33 0 -45z m421 -120 c2 -10 9 -15 16 -11 6 3 3 -3 -6 -14 -24 -26 -23 -36 1 -23 29 15 156 12 196 -4 54 -23 87 -115 51 -145 -17 -14 -31 2 -22 25 4 9 2 12 -5 8 -8 -4 -10 6 -8 33 4 32 1 39 -10 35 -11 -4 -13 -1 -7 14 6 15 5 17 -5 7 -7 -7 -25 -13 -39 -13 -14 0 -40 -10 -57 -23 -31 -22 -31 -23 -17 -62 16 -47 16 -48 6 -41 -4 3 -28 0 -52 -5 -76 -17 -121 21 -137 115 -4 27 -1 37 22 54 15 12 36 22 46 22 23 0 25 16 3 24 -8 3 -22 -1 -31 -10 -8 -8 -18 -12 -22 -9 -9 9 34 42 54 42 10 0 20 -9 23 -19z m212 -13 c-7 -8 -17 -15 -23 -15 -6 0 -2 7 9 15 25 19 30 19 14 0z m-333 -70 c-7 -13 -14 -20 -15 -14 -5 14 6 39 17 39 5 0 4 -11 -2 -25z m788 15 c3 -6 -1 -7 -9 -4 -18 7 -21 14 -7 14 6 0 13 -4 16 -10z m45 -16 c0 -8 -19 -13 -24 -6 -3 5 1 9 9 9 8 0 15 -2 15 -3z m-36 -13 c6 -9 -55 -43 -63 -36 -4 5 40 44 51 45 4 0 9 -4 12 -9z m-470 -23 c15 -76 15 -87 -2 -92 -24 -8 -74 3 -91 19 -19 19 -17 66 5 82 10 7 33 13 51 13 26 0 34 -5 37 -22z m1146 -25 c-11 -17 -11 -17 -6 0 3 10 7 26 7 35 1 15 2 15 6 0 2 -10 -1 -25 -7 -35z m-912 11 c8 -2 17 -6 20 -9 4 -4 -2 -5 -12 -3 -10 1 -21 -3 -24 -11 -3 -9 0 -11 9 -6 8 5 10 4 6 0 -15 -17 -36 -14 -30 3 5 14 3 15 -8 5 -7 -7 -21 -13 -31 -13 -10 0 -18 -3 -18 -7 0 -5 -13 -8 -28 -8 -21 0 -29 5 -30 20 -1 14 1 16 7 6 6 -9 18 -11 42 -6 41 9 72 29 61 40 -4 5 0 4 8 -1 8 -4 21 -9 28 -10z m162 0 c0 -12 -40 -27 -49 -19 -2 3 1 5 7 5 7 0 12 6 12 13 0 8 7 14 15 14 8 0 15 -6 15 -13z m-65 -4 c3 -5 -3 -10 -14 -10 -12 0 -21 5 -21 10 0 6 6 10 14 10 8 0 18 -4 21 -10z m871 -213 c-36 -38 -44 -39 -21 -3 10 14 14 26 11 26 -4 0 -5 4 -2 9 3 5 14 7 24 4 17 -4 15 -8 -12 -36z m-271 -57 c-3 -5 -12 -7 -20 -3 -21 7 -19 13 6 13 11 0 18 -4 14 -10z"/> <path d="M2213 1190 c0 -30 2 -43 4 -27 2 15 2 39 0 55 -2 15 -4 2 -4 -28z"/> <path d="M2162 1190 c0 -19 2 -27 5 -17 2 9 2 25 0 35 -3 9 -5 1 -5 -18z"/> <path d="M326 1567 c3 -10 9 -15 12 -12 3 3 0 11 -7 18 -10 9 -11 8 -5 -6z"/> <path d="M370 1271 c0 -5 7 -12 16 -15 14 -5 15 -4 4 9 -14 17 -20 19 -20 6z"/> <path d="M323 1190 c0 -30 2 -43 4 -27 2 15 2 39 0 55 -2 15 -4 2 -4 -28z"/> <path d="M412 965 c0 -16 2 -22 5 -12 2 9 2 23 0 30 -3 6 -5 -1 -5 -18z"/> <path d="M2046 1557 c3 -10 9 -15 12 -12 3 3 0 11 -7 18 -10 9 -11 8 -5 -6z"/> <path d="M1236 1522 c-8 -14 10 -52 25 -52 6 0 8 -4 4 -9 -3 -5 -1 -12 5 -16 6 -4 8 -10 6 -14 -3 -4 1 -8 9 -8 8 0 13 3 10 5 -3 3 0 11 5 18 8 9 3 18 -17 34 -15 12 -31 29 -34 38 -4 11 -8 12 -13 4z"/> <path d="M1951 1514 c0 -11 3 -14 6 -6 3 7 2 16 -1 19 -3 4 -6 -2 -5 -13z"/> <path d="M1210 1483 c0 -13 5 -23 10 -23 13 0 13 11 0 30 -8 12 -10 11 -10 -7z"/> <path d="M1452 1478 c-17 -17 -15 -28 4 -28 8 0 12 -5 9 -10 -4 -6 -10 -8 -15 -5 -15 9 -4 -24 15 -45 24 -27 31 -18 10 14 -21 32 -10 34 22 4 12 -12 35 -23 50 -24 15 -2 23 0 16 4 -6 4 -13 16 -15 27 -4 27 -48 75 -68 75 -9 0 -21 -5 -28 -12z m63 -28 c24 -46 18 -50 -20 -14 -40 38 -42 44 -15 44 11 0 26 -12 35 -30z"/> <path d="M1145 1469 c-4 -6 -4 -13 -1 -16 8 -8 36 5 36 17 0 13 -27 13 -35 -1z"/> <path d="M583 1453 c-3 -10 -8 -22 -10 -28 -3 -5 3 -1 11 9 16 20 21 36 11 36 -3 0 -8 -8 -12 -17z"/> <path d="M1391 1448 l-22 -22 22 -8 c12 -5 24 -6 27 -3 3 3 0 5 -7 5 -9 0 -9 5 -1 21 17 30 6 34 -19 7z"/> <path d="M1930 1461 c0 -5 6 -14 14 -20 12 -10 13 -8 9 8 -5 21 -23 30 -23 12z"/> <path d="M1195 1439 c-4 -6 -5 -12 -2 -15 2 -3 7 2 10 11 7 17 1 20 -8 4z"/> <path d="M960 1410 c0 -5 5 -10 10 -10 6 0 10 5 10 10 0 6 -4 10 -10 10 -5 0 -10 -4 -10 -10z"/> <path d="M1940 1413 c0 -5 5 -15 10 -23 8 -12 10 -11 10 8 0 12 -4 22 -10 22 -5 0 -10 -3 -10 -7z"/> <path d="M924 1378 l-19 -23 23 19 c21 18 27 26 19 26 -2 0 -12 -10 -23 -22z"/> <path d="M561 1367 c-1 -16 -4 -26 -8 -24 -11 6 -16 -310 -6 -327 7 -13 9 21 11 248 1 38 5 72 10 75 5 3 5 17 1 31 l-7 25 -1 -28z"/> <path d="M946 1353 c-6 -14 -5 -15 5 -6 7 7 10 15 7 18 -3 3 -9 -2 -12 -12z"/> <path d="M1966 1339 c4 -6 6 -37 5 -70 0 -32 2 -60 7 -63 4 -2 9 26 10 64 1 53 -2 69 -14 74 -9 4 -13 2 -8 -5z"/> <path d="M1041 1335 c0 -5 6 -21 14 -35 8 -14 14 -20 14 -15 0 6 -6 21 -14 35 -8 14 -14 21 -14 15z"/> <path d="M1066 1327 c3 -9 11 -17 16 -17 6 0 8 -12 4 -27 -5 -25 -4 -25 14 7 10 19 19 40 19 45 0 6 -4 2 -10 -8 -10 -18 -12 -18 -30 -1 -18 16 -19 16 -13 1z"/> <path d="M1301 1335 c0 -5 6 -19 14 -29 14 -18 15 -18 34 5 11 13 17 26 14 29 -2 3 -11 -4 -19 -14 -14 -20 -14 -20 -29 0 -8 10 -14 15 -14 9z"/> <path d="M1395 1330 c-3 -5 -2 -10 4 -10 5 0 13 5 16 10 3 6 2 10 -4 10 -5 0 -13 -4 -16 -10z"/> <path d="M1551 1324 c0 -11 3 -14 6 -6 3 7 2 16 -1 19 -3 4 -6 -2 -5 -13z"/> <path d="M1036 1288 c4 -18 2 -28 -5 -28 -6 0 -11 5 -11 10 0 6 -5 10 -11 10 -6 0 -8 -9 -3 -22 9 -33 14 -35 28 -16 10 13 15 15 24 6 18 -18 14 -2 -8 34 -20 32 -21 32 -14 6z"/> <path d="M1360 1299 c0 -6 8 -8 19 -4 11 3 22 1 26 -5 3 -5 11 -10 17 -10 7 0 6 6 -2 15 -14 17 -60 20 -60 4z"/> <path d="M1913 1275 c0 -22 2 -30 4 -17 2 12 2 30 0 40 -3 9 -5 -1 -4 -23z"/> <path d="M1383 1263 c-15 -5 -17 -23 -4 -23 5 0 11 7 15 15 3 8 4 15 3 14 -1 0 -8 -3 -14 -6z"/> <path d="M1650 1250 c0 -5 5 -10 11 -10 5 0 7 5 4 10 -3 6 -8 10 -11 10 -2 0 -4 -4 -4 -10z"/> <path d="M636 1235 c4 -8 8 -15 10 -15 2 0 4 7 4 15 0 8 -4 15 -10 15 -5 0 -7 -7 -4 -15z"/> <path d="M584 1134 c-9 -59 2 -144 20 -162 20 -20 27 0 11 31 -15 30 -20 107 -10 150 5 17 3 27 -3 27 -6 0 -14 -21 -18 -46z"/> <path d="M1985 1102 c5 -55 3 -87 -5 -102 -13 -25 -4 -42 10 -20 14 22 13 187 -1 196 -8 5 -9 -16 -4 -74z"/> <path d="M2021 1164 c0 -11 3 -14 6 -6 3 7 2 16 -1 19 -3 4 -6 -2 -5 -13z"/> <path d="M2020 1058 c-3 -26 -1 -43 3 -39 5 5 7 26 5 47 l-3 39 -5 -47z"/> <path d="M673 983 c-34 -4 -47 -22 -15 -19 13 1 16 -6 14 -29 -7 -73 -34 -195 -49 -226 -12 -25 -13 -34 -4 -37 9 -3 8 -9 -4 -22 -12 -14 -13 -20 -4 -26 8 -4 10 -3 5 4 -4 6 2 17 14 24 11 7 20 16 20 21 0 4 -4 5 -10 2 -14 -9 -13 1 4 34 21 39 46 154 46 207 0 30 5 46 15 50 15 6 22 25 8 22 -5 0 -23 -3 -40 -5z"/> <path d="M554 945 c-4 -9 -2 -50 4 -93 l10 -77 -5 84 c-4 64 -2 85 8 92 11 7 11 9 1 9 -7 0 -15 -7 -18 -15z"/> <path d="M1983 944 c-15 -15 -18 -84 -4 -84 7 0 22 87 17 96 -1 1 -7 -4 -13 -12z"/> <path d="M2025 947 c-6 -7 -7 -34 -4 -62 3 -27 7 -45 8 -40 1 7 7 117 6 115 0 -1 -4 -6 -10 -13z"/> <path d="M642 930 c0 -14 2 -19 5 -12 2 6 2 18 0 25 -3 6 -5 1 -5 -13z"/> <path d="M1890 866 c0 -2 7 -9 15 -16 9 -7 15 -8 15 -2 0 5 -7 12 -15 16 -8 3 -15 4 -15 2z"/> <path d="M521 844 c0 -11 3 -14 6 -6 3 7 2 16 -1 19 -3 4 -6 -2 -5 -13z"/> <path d="M1842 820 c0 -14 2 -19 5 -12 2 6 2 18 0 25 -3 6 -5 1 -5 -13z"/> <path d="M690 814 c-1 -10 -9 -44 -20 -74 -12 -34 -15 -59 -9 -64 5 -6 9 -2 9 11 0 12 5 25 10 28 6 4 10 12 9 18 -1 7 1 29 6 50 4 21 5 41 1 44 -3 4 -6 -2 -6 -13z"/> <path d="M1955 779 c-4 -11 -4 -23 -1 -26 3 -4 6 1 6 10 0 8 5 17 12 19 9 3 9 6 1 11 -7 4 -14 -1 -18 -14z"/> <path d="M541 774 c0 -11 3 -14 6 -6 3 7 2 16 -1 19 -3 4 -6 -2 -5 -13z"/> <path d="M581 750 c0 -14 4 -34 9 -45 7 -17 9 -16 9 10 0 17 -4 37 -9 45 -8 12 -10 10 -9 -10z"/> <path d="M1936 732 c-2 -4 -1 -14 5 -22 7 -12 9 -10 9 8 0 23 -5 28 -14 14z"/> <path d="M543 685 c-3 -9 -3 -19 1 -22 3 -4 6 1 6 10 0 8 6 18 13 20 9 4 9 6 -1 6 -7 1 -15 -6 -19 -14z"/> <path d="M1978 693 c7 -3 16 -2 19 1 4 3 -2 6 -13 5 -11 0 -14 -3 -6 -6z"/> <path d="M1960 670 c-13 -8 -12 -10 3 -10 9 0 17 5 17 10 0 12 -1 12 -20 0z"/> <path d="M556 635 c-3 -9 -6 -22 -5 -28 0 -7 5 -1 10 12 5 13 8 26 5 28 -2 2 -6 -3 -10 -12z"/> <path d="M1939 621 c9 -6 10 -11 2 -15 -6 -4 -11 -13 -11 -19 0 -7 7 -3 15 7 15 20 12 36 -8 36 -8 0 -8 -3 2 -9z"/> <path d="M2345 1561 c-3 -5 -1 -12 5 -16 5 -3 10 -1 10 5 0 6 5 8 12 4 7 -4 8 -3 4 4 -9 14 -23 15 -31 3z"/> <path d="M2372 1210 c0 -19 2 -27 5 -17 2 9 2 25 0 35 -3 9 -5 1 -5 -18z"/> <path d="M1651 1142 c-15 -16 -18 -23 -7 -19 9 4 16 2 16 -3 0 -25 15 -7 17 20 1 17 1 30 0 29 -1 -1 -13 -13 -26 -27z"/> <path d="M1596 1135 c-3 -8 -1 -15 4 -15 6 0 10 7 10 15 0 8 -2 15 -4 15 -2 0 -6 -7 -10 -15z"/> <path d="M1688 1135 c-4 -4 -4 -13 -1 -21 3 -8 1 -14 -5 -14 -5 0 -14 -12 -20 -27 -17 -42 -18 -48 -7 -48 5 0 8 9 7 20 -2 14 0 16 6 7 6 -9 12 -1 22 27 12 38 11 69 -2 56z"/> <path d="M1591 1098 c0 -9 -4 -25 -7 -35 -5 -17 -5 -17 6 0 6 10 9 25 7 35 -4 15 -5 15 -6 0z"/> <path d="M1600 935 c14 -8 30 -14 35 -14 6 0 -1 6 -15 14 -14 8 -29 14 -35 14 -5 0 1 -6 15 -14z"/> <path d="M1258 1070 c-26 -112 -26 -130 -2 -146 17 -12 23 -12 40 2 18 15 18 15 -2 5 -40 -19 -47 6 -29 98 21 104 15 139 -7 41z"/> <path d="M1187 1123 c-10 -9 -9 -23 1 -23 5 0 9 7 9 15 0 17 -1 18 -10 8z"/> <path d="M1126 1093 c2 -16 9 -50 14 -76 7 -34 7 -55 -1 -70 -9 -18 -9 -20 2 -10 17 17 50 -11 42 -35 -4 -15 -3 -15 6 -2 7 11 5 20 -9 35 -12 13 -23 49 -31 103 -7 45 -16 82 -20 82 -4 0 -6 -12 -3 -27z"/> <path d="M1221 1084 c0 -11 3 -14 6 -6 3 7 2 16 -1 19 -3 4 -6 -2 -5 -13z"/> <path d="M1212 1000 c0 -14 2 -19 5 -12 2 6 2 18 0 25 -3 6 -5 1 -5 -13z"/> <path d="M1156 917 c3 -10 9 -15 12 -12 3 3 0 11 -7 18 -10 9 -11 8 -5 -6z"/> <path d="M1445 1151 c-3 -5 -2 -12 3 -15 5 -3 9 1 9 9 0 17 -3 19 -12 6z"/> <path d="M1476 1073 c-6 -43 -2 -63 9 -52 2 3 5 21 7 42 1 20 6 37 11 37 4 0 5 5 2 10 -13 21 -22 8 -29 -37z"/> <path d="M1373 1060 c0 -25 2 -35 4 -22 2 12 2 32 0 45 -2 12 -4 2 -4 -23z"/> <path d="M1402 1000 c0 -14 2 -19 5 -12 2 6 2 18 0 25 -3 6 -5 1 -5 -13z"/> <path d="M1450 1001 c0 -11 4 -22 9 -25 11 -7 23 22 15 35 -9 16 -24 10 -24 -10z"/> <path d="M1372 974 c-2 -33 13 -58 41 -67 26 -10 20 8 -7 21 -17 8 -26 21 -29 44 l-4 33 -1 -31z"/> <path d="M900 1098 c0 -19 -2 -20 -11 -8 -8 12 -9 10 -5 -10 3 -14 6 -35 6 -47 0 -13 3 -23 8 -23 4 0 8 25 9 55 0 30 -1 55 -3 55 -2 0 -4 -10 -4 -22z"/> <path d="M1008 1029 c2 -50 5 -89 8 -87 2 3 6 44 9 91 3 65 1 87 -8 87 -9 0 -11 -24 -9 -91z"/> <path d="M952 1087 c5 -11 8 -32 6 -48 -3 -15 -1 -26 4 -23 4 3 8 24 8 48 0 31 -4 43 -14 43 -12 0 -13 -5 -4 -20z"/> <path d="M912 1050 c0 -14 2 -19 5 -12 2 6 2 18 0 25 -3 6 -5 1 -5 -13z"/> <path d="M920 1008 c0 -9 -6 -19 -12 -21 -10 -4 -10 -6 0 -6 14 -1 28 26 18 36 -3 4 -6 -1 -6 -9z"/> <path d="M950 993 c0 -15 18 -35 23 -27 3 5 -1 15 -9 22 -8 7 -14 9 -14 5z"/> <path d="M900 965 c0 -9 40 -45 50 -45 5 0 -1 11 -14 25 -22 24 -36 31 -36 20z"/> <path d="M821 861 c-10 -6 -10 -20 -2 -66 10 -54 21 -84 21 -57 0 7 7 12 16 12 8 0 12 5 9 10 -4 6 -10 8 -14 6 -4 -3 -9 18 -10 47 -3 59 -2 59 -20 48z"/> <path d="M948 843 c-10 -2 -18 -9 -18 -14 0 -14 20 -11 36 6 16 15 13 16 -18 8z"/> <path d="M895 830 c3 -5 8 -10 11 -10 2 0 4 5 4 10 0 6 -5 10 -11 10 -5 0 -7 -4 -4 -10z"/> <path d="M892 778 c-15 -15 -16 -35 -2 -43 6 -3 7 1 4 9 -4 9 1 18 10 22 9 3 16 10 16 15 0 13 -14 11 -28 -3z"/> <path d="M1000 775 c0 -18 4 -23 16 -18 14 5 15 3 5 -18 -11 -23 -11 -23 3 -5 9 11 16 15 16 9 0 -6 7 -14 16 -17 11 -4 8 3 -8 23 -13 15 -27 26 -32 23 -5 -3 -7 2 -3 11 3 10 2 17 -3 17 -6 0 -10 -11 -10 -25z"/> <path d="M1030 792 c0 -15 11 -21 27 -15 12 5 12 7 1 14 -17 11 -28 11 -28 1z"/> <path d="M155 1650 c-3 -6 1 -7 9 -4 18 7 21 14 7 14 -6 0 -13 -4 -16 -10z"/> <path d="M1318 1653 c12 -2 30 -2 40 0 9 3 -1 5 -23 4 -22 0 -30 -2 -17 -4z"/> <path d="M2388 1646 c-15 -11 -14 -13 13 -13 16 0 26 3 22 6 -4 4 -10 9 -13 13 -3 3 -13 1 -22 -6z"/> <path d="M2455 1650 c-3 -5 -2 -10 4 -10 5 0 13 5 16 10 3 6 2 10 -4 10 -5 0 -13 -4 -16 -10z"/> <path d="M83 1629 c-2 -23 3 -25 10 -4 4 8 3 16 -1 19 -4 3 -9 -4 -9 -15z"/> <path d="M110 1620 c0 -6 7 -10 15 -10 8 0 15 2 15 4 0 2 -7 6 -15 10 -8 3 -15 1 -15 -4z"/> <path d="M2457 1591 c-3 -12 2 -25 12 -33 14 -11 14 -11 3 4 -8 10 -9 17 -3 20 6 2 7 9 2 16 -6 10 -10 9 -14 -7z"/> <path d="M1374 1568 c-4 -6 -3 -8 4 -4 5 3 12 1 14 -6 3 -8 6 -9 11 -1 4 6 0 13 -8 17 -8 3 -17 0 -21 -6z"/> <path d="M1426 1571 c-4 -5 -2 -12 3 -15 5 -4 12 -2 15 3 4 5 2 12 -3 15 -5 4 -12 2 -15 -3z"/> <path d="M1515 1570 c3 -5 8 -10 11 -10 2 0 4 5 4 10 0 6 -5 10 -11 10 -5 0 -7 -4 -4 -10z"/> <path d="M1544 1558 l-19 -23 25 20 c14 11 27 21 29 22 2 2 0 3 -6 3 -5 0 -18 -10 -29 -22z"/> <path d="M38 1548 c-16 -25 -29 -58 -24 -58 2 0 13 18 25 40 22 43 22 54 -1 18z"/> <path d="M950 1561 c13 -10 13 -12 0 -22 -13 -9 -13 -10 0 -6 8 2 15 10 15 17 0 7 -7 15 -15 17 -13 4 -13 3 0 -6z"/> <path d="M1581 1543 c12 -14 12 -16 -2 -11 -9 4 -16 1 -16 -7 0 -11 5 -11 19 -4 15 8 17 13 7 25 -6 8 -14 14 -16 14 -3 0 1 -8 8 -17z"/> <path d="M1764 1499 c-4 -7 -3 -9 4 -5 5 3 13 0 15 -6 4 -9 6 -10 6 -1 1 17 -16 25 -25 12z"/> <path d="M771 1448 c0 -9 -4 -25 -7 -35 -5 -17 -5 -17 6 0 6 10 9 25 7 35 -4 15 -5 15 -6 0z"/> <path d="M75 1430 c-3 -6 1 -7 9 -4 18 7 21 14 7 14 -6 0 -13 -4 -16 -10z"/> <path d="M251 1274 c0 -11 3 -14 6 -6 3 7 2 16 -1 19 -3 4 -6 -2 -5 -13z"/> <path d="M52 1120 c0 -14 2 -19 5 -12 2 6 2 18 0 25 -3 6 -5 1 -5 -13z"/> <path d="M10 1000 c0 -170 56 -356 121 -403 38 -27 114 -35 122 -13 4 10 3 14 -2 11 -5 -3 -12 -1 -16 5 -3 5 -14 10 -23 10 -15 0 -15 -2 -2 -10 8 -5 11 -10 5 -10 -19 0 -36 17 -32 31 2 8 2 11 0 6 -3 -4 -9 -5 -14 -1 -5 3 -9 0 -9 -7 0 -9 -3 -9 -14 0 -9 7 -13 26 -11 49 l3 36 -19 -23 c-15 -18 -19 -20 -20 -7 -2 19 -4 26 -12 46 -4 8 -8 25 -10 37 -2 12 -7 26 -12 30 -4 5 -5 2 0 -6 5 -10 4 -12 -4 -7 -6 4 -9 12 -5 17 3 5 0 18 -8 27 -12 15 -11 16 5 3 15 -12 17 -11 17 7 0 12 -5 24 -12 28 -7 5 -8 3 -3 -6 5 -9 4 -11 -4 -6 -8 5 -10 19 -6 38 5 19 3 28 -3 24 -5 -3 -10 4 -10 17 0 75 -5 136 -13 148 -5 9 -9 -18 -9 -71z"/> <path d="M1660 796 c0 -2 7 -7 16 -10 8 -3 12 -2 9 4 -6 10 -25 14 -25 6z"/> <path d="M1715 790 c-3 -6 1 -7 9 -4 18 7 21 14 7 14 -6 0 -13 -4 -16 -10z"/> <path d="M1585 761 c-3 -5 -2 -12 3 -15 5 -3 9 1 9 9 0 17 -3 19 -12 6z"/> <path d="M1555 730 c-10 -16 4 -30 28 -29 l22 0 -22 9 c-13 5 -23 12 -23 16 0 3 7 3 16 0 8 -3 12 -2 9 4 -8 13 -22 13 -30 0z"/> <path d="M1490 710 c8 -5 22 -9 30 -9 10 0 8 3 -5 9 -27 12 -43 12 -25 0z"/> <path d="M744 689 c-3 -6 -2 -15 3 -20 5 -5 9 -1 9 11 0 23 -2 24 -12 9z"/> <path d="M2250 680 c0 -5 5 -10 11 -10 5 0 7 5 4 10 -3 6 -8 10 -11 10 -2 0 -4 -4 -4 -10z"/> <path d="M30 661 c0 -7 -5 -9 -12 -5 -7 5 -8 3 -3 -5 5 -9 10 -10 18 -2 6 6 8 14 4 18 -4 3 -7 1 -7 -6z"/> <path d="M774 645 c-18 -15 -18 -15 0 -8 15 5 17 3 11 -8 -5 -8 -4 -11 0 -6 8 7 17 37 11 37 -1 0 -11 -7 -22 -15z"/> <path d="M1189 633 c-12 -16 -12 -17 1 -7 8 7 24 14 35 17 19 4 19 5 -1 6 -12 0 -28 -7 -35 -16z"/> <path d="M2439 583 c-13 -16 -12 -17 4 -4 16 13 21 21 13 21 -2 0 -10 -8 -17 -17z"/> <path d="M2466 566 c6 -15 4 -17 -6 -11 -9 6 -11 4 -5 -4 5 -9 10 -10 18 -2 8 8 7 14 -2 24 -10 10 -11 8 -5 -7z"/> <path d="M95 550 c-17 -8 -17 -9 7 -7 15 1 24 5 22 9 -3 4 -6 8 -7 7 -1 0 -11 -4 -22 -9z"/> <path d="M1840 546 c0 -2 8 -10 18 -17 15 -13 16 -12 3 4 -13 16 -21 21 -21 13z"/> <path d="M1853 504 c20 -24 22 -38 5 -28 -7 4 -9 3 -5 -1 4 -5 14 -10 22 -11 18 -3 5 26 -22 47 -17 13 -17 13 0 -7z"/> <path d="M673 493 c-4 -10 -11 -21 -17 -25 -7 -5 -7 -8 -1 -8 17 0 30 14 31 33 1 9 0 17 -2 17 -3 0 -8 -8 -11 -17z"/> <path d="M2292 498 c-7 -9 -6 -17 3 -25 10 -10 14 -9 19 3 4 10 2 13 -6 8 -8 -5 -9 -2 -5 9 8 20 3 22 -11 5z"/> <path d="M240 496 c0 -2 6 -9 13 -15 10 -8 14 -7 14 4 0 8 -6 15 -14 15 -7 0 -13 -2 -13 -4z"/> <path d="M701 484 c0 -11 3 -14 6 -6 3 7 2 16 -1 19 -3 4 -6 -2 -5 -13z"/> <path d="M0 185 c0 -12 167 -14 1270 -15 1127 0 1270 1 1270 15 0 13 -143 15 -1270 15 -1104 0 -1270 -2 -1270 -15z"/> <path d="M520 160 l45 -7 -42 -1 c-25 -1 -43 -7 -43 -14 0 -6 -3 -8 -7 -5 -3 4 -13 1 -21 -6 -13 -10 -14 -9 -8 1 6 10 1 11 -18 6 -20 -5 -26 -2 -26 10 0 20 -75 23 -83 3 -7 -18 -76 -15 -87 3 -9 13 -14 8 -12 -11 1 -4 -14 -6 -33 -6 -19 1 -35 5 -35 10 0 5 -13 7 -30 4 -16 -4 -32 -2 -35 3 -3 6 -11 10 -17 10 -7 0 -5 -7 4 -17 18 -23 40 -74 34 -81 -3 -2 -13 14 -22 37 -9 22 -20 41 -25 41 -12 0 -12 -1 5 -42 16 -37 39 -62 49 -51 4 3 13 0 21 -6 9 -7 21 -9 28 -5 7 5 93 7 190 6 155 -1 179 0 194 15 12 12 13 18 5 21 -8 3 -4 10 9 19 14 10 20 22 17 34 -3 11 0 19 6 20 31 2 -33 17 -68 17 l-40 -1 45 -7z m-390 -39 c-8 -17 -7 -19 13 -16 12 2 33 7 47 11 24 6 24 6 6 -8 -11 -9 -16 -20 -12 -27 11 -17 36 5 36 31 0 13 4 17 13 11 6 -4 20 -6 30 -5 9 2 17 -1 17 -7 0 -6 -7 -8 -15 -5 -9 4 -15 0 -15 -9 0 -28 20 -29 32 -3 15 35 26 33 20 -5 -3 -19 -7 -26 -12 -19 -5 8 -10 9 -14 2 -8 -13 -49 -11 -58 3 -5 6 -8 6 -8 -2 0 -7 -7 -13 -15 -13 -8 0 -15 5 -15 11 0 8 -5 8 -15 -1 -12 -10 -18 -10 -32 1 -10 7 -19 14 -21 15 -7 4 11 54 19 54 6 0 5 -8 -1 -19z m225 10 c3 -5 -2 -11 -10 -13 -13 -2 -12 -5 5 -16 18 -11 20 -10 20 15 0 20 3 24 9 14 5 -7 19 -14 32 -15 19 -1 24 -7 24 -26 0 -32 -29 -34 -33 -2 -2 12 -8 22 -14 22 -6 0 -8 -11 -3 -27 5 -23 4 -25 -8 -14 -10 8 -17 9 -22 1 -8 -13 -35 -13 -35 0 0 6 8 10 18 10 16 1 16 2 -2 15 -11 8 -16 21 -13 30 7 17 23 20 32 6z m163 -19 c16 12 16 11 1 -7 -9 -11 -19 -27 -22 -35 -3 -8 -5 5 -5 30 0 25 3 35 5 22 4 -20 7 -21 21 -10z m42 13 c0 -8 -4 -15 -9 -15 -5 0 -11 7 -15 15 -3 9 0 15 9 15 8 0 15 -7 15 -15z m-395 -5 c-3 -5 -12 -10 -18 -10 -7 0 -6 4 3 10 19 12 23 12 15 0z m304 -16 c-10 -13 -10 -17 1 -24 8 -5 11 -12 8 -15 -11 -11 -28 4 -28 24 0 20 8 31 23 31 5 0 4 -7 -4 -16z m67 -41 c-7 -7 -26 7 -26 19 0 6 6 6 15 -2 9 -7 13 -15 11 -17z"/> <path d="M232 90 c0 -14 2 -19 5 -12 2 6 2 18 0 25 -3 6 -5 1 -5 -13z"/> <path d="M140 80 c0 -5 4 -10 9 -10 6 0 13 5 16 10 3 6 -1 10 -9 10 -9 0 -16 -4 -16 -10z"/> <path d="M410 95 c0 -8 5 -15 10 -15 6 0 10 7 10 15 0 8 -4 15 -10 15 -5 0 -10 -7 -10 -15z"/> <path d="M2488 153 c12 -2 30 -2 40 0 9 3 -1 5 -23 4 -22 0 -30 -2 -17 -4z"/> <path d="M1884 133 c5 -9 -1 -13 -17 -13 -49 0 -41 -63 9 -73 15 -2 152 -4 306 -4 251 1 280 2 294 18 10 11 13 25 9 39 -8 25 -19 18 -20 -12 0 -28 -42 -32 -56 -6 -13 25 -29 23 -30 -4 0 -21 -1 -22 -8 -3 -6 16 -9 17 -17 5 -12 -20 -97 -23 -90 -4 3 8 1 14 -4 14 -6 0 -10 -8 -10 -17 0 -13 -3 -14 -12 -5 -17 17 4 37 42 40 23 2 29 -1 24 -10 -4 -7 -4 -10 1 -6 4 4 16 3 26 -3 12 -6 19 -6 19 0 0 5 -8 11 -17 14 -10 2 10 4 45 4 46 0 65 -4 73 -16 8 -13 9 -13 6 -1 -2 8 -1 22 4 30 5 11 2 16 -11 16 -10 0 -16 -4 -14 -8 3 -4 0 -8 -5 -8 -6 0 -11 5 -11 10 0 6 -5 10 -11 10 -5 0 -7 -5 -3 -12 5 -7 3 -8 -7 -3 -18 12 -49 14 -43 3 8 -13 -10 -10 -25 4 -11 11 -13 11 -7 0 4 -6 2 -12 -3 -12 -6 0 -11 4 -11 8 0 5 -7 9 -15 9 -8 0 -15 -4 -15 -9 0 -5 -5 -6 -12 -2 -22 14 -99 12 -105 -2 -3 -8 -9 -11 -14 -8 -5 3 -7 9 -5 13 3 4 -1 8 -9 8 -10 0 -11 -5 -4 -18 6 -12 5 -20 -3 -25 -6 -4 -8 -3 -5 3 4 6 -2 18 -12 27 -14 13 -21 14 -27 5 -5 -8 -3 -10 7 -4 8 5 11 4 7 0 -11 -12 -57 -15 -63 -4 -3 5 2 6 12 2 14 -5 16 -3 6 7 -9 10 -15 10 -26 2 -8 -7 -17 -9 -20 -5 -4 3 -12 2 -19 -3 -21 -15 -63 -11 -60 5 2 11 0 12 -11 3 -10 -9 -17 -9 -27 1 -10 9 -11 9 -6 0z m360 -14 c-5 -9 -74 -9 -74 0 0 4 18 7 39 7 22 0 38 -3 35 -7z m-337 -17 c-10 -13 -8 -14 11 -8 14 5 29 3 39 -6 14 -10 15 -11 9 0 -5 9 -3 13 5 11 27 -3 40 1 33 12 -4 8 0 8 15 0 21 -12 29 -41 11 -41 -5 0 -12 0 -15 0 -3 0 -4 3 -2 8 1 4 5 6 10 4 4 -1 7 2 7 8 0 15 -9 12 -37 -9 -23 -19 -53 -19 -53 0 0 5 -4 9 -10 9 -5 0 -6 -8 -3 -17 6 -16 5 -16 -10 -4 -12 9 -17 10 -17 2 0 -7 -5 -9 -12 -4 -7 4 -17 8 -23 8 -5 0 -11 9 -13 20 -3 16 -1 17 7 5 10 -13 11 -13 11 0 0 13 1 13 10 0 8 -13 14 -8 12 11 -1 3 6 6 13 6 12 0 12 -3 2 -15z m239 -12 c16 13 17 13 9 0 -7 -12 -6 -13 6 -4 8 6 26 11 41 12 22 1 25 -2 20 -20 -3 -13 -7 -17 -10 -10 -2 7 -10 9 -20 4 -20 -10 -98 -10 -107 0 -4 4 -13 4 -21 1 -9 -3 -14 1 -14 12 0 10 5 15 13 12 8 -3 20 -1 27 3 9 6 18 3 26 -8 10 -14 14 -15 30 -2z m251 -22 c-3 -8 -6 -5 -6 6 -1 11 2 17 5 13 3 -3 4 -12 1 -19z"/> <path d="M1940 132 c0 -4 9 -8 19 -8 11 0 17 4 15 8 -7 10 -34 10 -34 0z"/> <path d="M42 90 c0 -14 2 -19 5 -12 2 6 2 18 0 25 -3 6 -5 1 -5 -13z"/> </g> </svg> 