<?xml version="1.0" standalone="no"?>
<!DOCTYPE svg PUBLIC "-//W3C//DTD SVG 20010904//EN"
 "http://www.w3.org/TR/2001/REC-SVG-20010904/DTD/svg10.dtd">
<svg version="1.0" xmlns="http://www.w3.org/2000/svg"
 width="194.000000pt" height="129.000000pt" viewBox="0 0 194.000000 129.000000"
 preserveAspectRatio="xMidYMid meet">
<metadata>
Created by potrace 1.10, written by Peter Selinger 2001-2011
</metadata>
<g transform="translate(0.000000,129.000000) scale(0.100000,-0.100000)"
fill="#000000" stroke="none">
<path d="M944 1107 c-9 -23 0 -102 11 -100 13 4 17 101 4 108 -5 4 -12 0 -15
-8z"/>
<path d="M1106 1034 c-27 -48 -31 -64 -18 -64 12 0 62 99 53 105 -5 3 -21 -16
-35 -41z"/>
<path d="M770 1060 c0 -12 27 -69 42 -87 6 -7 14 -10 19 -8 4 3 -6 28 -23 55
-32 51 -38 58 -38 40z"/>
<path d="M1230 913 c-55 -32 -55 -32 -47 -39 7 -7 107 48 107 59 0 12 -13 8
-60 -20z"/>
<path d="M640 921 c0 -8 81 -61 94 -61 19 0 0 22 -38 44 -49 28 -56 31 -56 17z"/>
<path d="M880 914 c-75 -32 -122 -105 -122 -188 0 -41 10 -70 55 -161 59 -116
79 -169 70 -179 -4 -3 0 -17 7 -30 8 -15 10 -39 7 -61 -6 -35 -4 -37 35 -55
41 -18 43 -18 79 1 35 18 38 22 37 61 0 24 2 50 5 58 3 8 8 32 10 52 6 37 26
85 72 168 14 25 32 68 41 97 15 44 15 58 5 96 -17 58 -64 115 -115 138 -50 23
-138 24 -186 3z m205 -32 c22 -15 50 -47 63 -72 35 -68 27 -118 -42 -253 -31
-62 -56 -120 -56 -129 0 -10 -9 -22 -20 -28 -19 -10 -20 -8 -20 69 0 49 7 102
19 139 l18 59 -81 0 -82 -1 18 -56 c11 -30 22 -90 25 -132 5 -67 4 -78 -10
-78 -9 0 -18 10 -22 23 -3 12 -31 72 -61 132 -64 128 -74 176 -50 240 19 50
73 102 114 111 15 3 32 7 37 10 28 10 113 -9 150 -34z m-130 -232 c5 8 10 8
20 0 10 -8 15 -8 20 0 5 8 11 8 17 2 6 -6 4 -31 -6 -70 -9 -33 -16 -89 -16
-125 0 -63 0 -64 -25 -59 -24 4 -25 8 -25 71 0 37 -7 91 -15 119 -17 56 -13
81 10 62 10 -8 15 -8 20 0z m91 -277 c-10 -11 -146 -11 -152 -1 -3 4 32 8 77
8 45 0 79 -3 75 -7z m-16 -53 c0 -30 0 -30 -60 -30 -60 0 -60 0 -60 30 0 30 0
30 60 30 60 0 60 0 60 -30z m-10 -60 c-8 -5 -31 -10 -50 -10 -19 0 -42 5 -50
10 -11 7 4 10 50 10 46 0 61 -3 50 -10z"/>
<path d="M872 860 c-48 -29 -72 -76 -71 -135 l1 -50 8 51 c12 81 38 115 107
140 31 11 34 13 13 14 -14 0 -40 -9 -58 -20z"/>
<path d="M1230 750 c0 -6 27 -10 60 -10 33 0 60 4 60 10 0 6 -27 10 -60 10
-33 0 -60 -4 -60 -10z"/>
<path d="M585 740 c-4 -6 17 -10 54 -10 34 0 61 4 61 10 0 6 -24 10 -54 10
-30 0 -58 -4 -61 -10z"/>
<path d="M590 180 c0 -6 133 -10 380 -10 247 0 380 4 380 10 0 6 -133 10 -380
10 -247 0 -380 -4 -380 -10z"/>
</g>
</svg>
