<?xml version="1.0" standalone="no"?>
<!DOCTYPE svg PUBLIC "-//W3C//DTD SVG 20010904//EN"
 "http://www.w3.org/TR/2001/REC-SVG-20010904/DTD/svg10.dtd">
<svg version="1.0" xmlns="http://www.w3.org/2000/svg"
 width="243.000000pt" height="207.000000pt" viewBox="0 0 243.000000 207.000000"
 preserveAspectRatio="xMidYMid meet">
<metadata>
Created by potrace 1.10, written by Peter Selinger 2001-2011
</metadata>
<g transform="translate(0.000000,207.000000) scale(0.100000,-0.100000)"
fill="#000000" stroke="none">
<path d="M317 2033 c-26 -7 -47 -56 -47 -110 0 -48 0 -49 -42 -63 -39 -14 -43
-19 -46 -51 -2 -29 -9 -38 -35 -50 -30 -13 -32 -18 -35 -71 -3 -49 -6 -58 -22
-58 -29 0 -50 -11 -50 -26 0 -8 -6 -23 -12 -34 -15 -24 1 -57 25 -52 9 1 18
-2 21 -7 3 -5 16 -7 29 -4 21 5 21 4 -3 -16 -23 -18 -24 -20 -6 -27 25 -10 52
9 49 35 -4 30 14 26 32 -9 20 -38 42 -50 77 -39 23 6 33 4 50 -13 14 -14 27
-18 46 -13 15 3 35 6 45 6 22 0 22 8 -3 34 -11 12 -39 70 -61 131 -40 104 -42
115 -46 243 -3 89 -1 131 6 127 12 -8 34 28 23 39 -4 3 -2 5 3 4 6 -2 21 3 34
10 24 13 24 13 15 -20 -5 -19 -9 -83 -9 -144 0 -89 5 -123 24 -180 32 -95 86
-196 132 -249 22 -25 36 -47 32 -49 -12 -7 -73 -1 -81 8 -4 5 0 6 9 3 9 -4 22
-2 30 4 11 8 10 9 -3 4 -10 -3 -30 5 -47 20 -43 36 -51 10 -10 -32 38 -39 38
-39 107 -19 61 18 75 39 93 137 l12 65 27 -15 c39 -23 121 -175 114 -211 -5
-21 1 -36 23 -62 16 -19 34 -46 40 -61 7 -14 25 -34 42 -44 46 -27 46 -42 -3
-94 -24 -25 -56 -66 -71 -90 l-28 -44 31 -26 c30 -24 30 -26 19 -73 -8 -35 -7
-60 1 -97 9 -39 9 -55 0 -70 -16 -26 2 -64 43 -89 17 -11 44 -38 59 -62 23
-34 26 -45 17 -60 -9 -14 -8 -22 5 -36 27 -29 2 -53 -56 -53 -49 0 -108 -20
-138 -47 -24 -21 -25 -119 -2 -151 28 -41 92 -65 183 -70 79 -4 86 -7 110 -35
35 -41 79 -57 159 -57 93 0 168 24 210 66 33 33 35 37 29 93 -5 58 -31 121
-72 177 -13 16 -25 41 -27 55 -2 16 -10 25 -25 27 -18 3 -23 10 -23 33 0 23
-5 30 -27 35 -38 9 -65 34 -58 53 3 8 3 12 -1 8 -4 -3 -15 3 -26 15 -18 21
-18 22 4 45 l22 23 -35 38 c-42 44 -63 108 -54 164 6 31 23 57 72 110 70 77
103 133 103 174 0 14 22 63 49 108 58 96 100 178 135 265 14 35 35 70 46 78
11 8 20 22 20 32 0 12 14 24 43 35 24 9 58 32 77 51 27 28 39 33 59 28 14 -3
27 -7 29 -8 1 -1 -4 -28 -13 -61 -19 -73 -19 -184 -1 -228 11 -27 22 -35 57
-44 47 -12 88 0 97 27 3 9 0 11 -8 6 -9 -5 -11 -4 -6 4 4 6 0 14 -9 17 -13 5
-15 16 -10 53 14 102 47 217 80 280 42 80 115 172 115 145 0 -10 -17 -38 -39
-64 -75 -88 -121 -214 -121 -327 0 -33 -5 -65 -12 -72 -11 -11 -10 -13 0 -7 7
4 11 3 10 -4 -2 -6 17 -18 41 -27 36 -12 48 -13 68 -2 13 7 21 19 19 26 -3 7
0 12 7 10 7 -1 12 5 11 14 -1 12 8 15 46 11 42 -3 49 -1 73 28 15 17 30 38 35
46 7 12 14 12 56 -2 39 -14 52 -14 71 -4 13 7 28 9 34 5 14 -8 41 12 41 31 0
8 -6 14 -13 14 -13 0 -67 56 -67 69 0 4 10 7 22 7 14 -1 24 6 26 17 3 16 -2
18 -34 15 -24 -2 -41 -10 -48 -23 -6 -11 -12 -22 -13 -24 -2 -2 -9 1 -17 8 -9
8 -12 24 -9 49 5 36 3 39 -34 55 -35 17 -38 21 -39 59 -2 42 -29 78 -58 78 -7
0 -16 19 -22 43 -8 39 -13 43 -67 65 -54 22 -59 22 -85 6 -39 -24 -98 -100
-133 -172 -22 -46 -35 -62 -46 -58 -8 3 -18 6 -23 6 -5 0 -11 14 -15 30 -4 17
-16 35 -27 41 -11 6 -28 19 -39 30 -10 10 -31 21 -46 24 -16 4 -41 12 -58 19
-34 14 -85 5 -105 -19 -7 -8 -19 -15 -27 -15 -8 0 -30 -7 -49 -16 -27 -13 -57
-15 -156 -11 -68 3 -142 11 -164 18 -39 12 -46 11 -93 -13 l-50 -25 -28 29
c-24 26 -33 28 -97 28 -62 0 -73 -3 -97 -26 -15 -15 -38 -32 -51 -38 -13 -6
-27 -21 -33 -33 -18 -43 -33 -33 -76 47 -23 44 -61 100 -84 125 -38 41 -46 45
-86 44 -24 -1 -52 -3 -62 -6z m115 -28 c16 -14 24 -25 17 -25 -7 0 -9 -3 -5
-7 4 -5 13 -8 19 -8 7 0 33 -36 60 -79 46 -78 57 -103 37 -91 -5 3 -10 1 -10
-5 0 -6 -4 -8 -10 -5 -5 3 -10 11 -10 16 0 6 5 7 10 4 6 -3 10 -2 10 4 0 5 -5
13 -10 16 -6 4 -8 10 -5 15 3 5 0 12 -6 16 -9 5 -10 -1 -5 -22 l6 -29 -15 25
c-17 29 -19 44 -5 35 14 -9 12 1 -6 36 -8 17 -18 29 -21 26 -2 -3 0 -14 6 -25
23 -44 9 -32 -28 23 -22 32 -37 63 -34 68 3 5 0 8 -8 5 -39 -13 -36 -215 6
-346 26 -83 120 -237 144 -237 6 0 10 5 9 10 -2 6 -6 9 -10 8 -21 -7 -120 168
-142 253 -20 77 -30 220 -18 259 l9 30 35 -55 c44 -69 81 -141 75 -147 -3 -2
-17 -5 -33 -7 -15 -2 -30 -9 -32 -15 -6 -19 19 -99 35 -112 11 -10 16 -6 26
20 11 30 36 43 38 19 0 -7 4 -5 7 4 4 10 8 -37 10 -104 3 -134 14 -175 30
-118 7 23 11 28 11 14 1 -12 -8 -33 -19 -46 -10 -14 -17 -28 -14 -31 3 -3 -2
-4 -13 -2 -10 2 -21 4 -24 4 -3 1 -24 27 -46 59 -101 143 -149 292 -140 432 5
80 19 140 33 140 3 0 19 -11 36 -25z m1588 4 c0 -6 4 -7 10 -4 6 4 7 -1 3 -12
-6 -16 -5 -16 10 -4 10 8 20 11 24 7 3 -3 -19 -33 -51 -65 -61 -65 -124 -182
-152 -286 -10 -35 -17 -99 -17 -152 0 -51 -4 -93 -8 -93 -12 0 -29 27 -21 36
4 4 0 3 -9 -4 -24 -18 -31 5 -35 118 -2 77 0 91 9 73 10 -18 12 -12 11 45 -1
70 11 122 28 122 5 0 6 5 3 10 -3 6 0 10 7 10 19 0 39 36 31 56 -4 12 -3 15 5
10 8 -5 10 -2 6 8 -3 9 -1 16 5 16 6 0 11 6 11 14 0 8 14 19 30 25 17 5 30 12
30 15 0 3 -12 1 -27 -5 l-28 -10 30 30 c17 17 38 31 48 31 10 0 16 4 13 8 -2
4 4 9 15 9 10 1 19 -3 19 -8z m80 -62 c0 -18 -2 -19 -10 -7 -16 23 -93 -68
-139 -165 -58 -120 -93 -284 -72 -337 6 -16 6 -30 1 -33 -27 -17 -30 127 -5
225 33 127 105 261 171 320 38 33 54 32 54 -3z m-527 -14 c4 -3 2 -12 -4 -20
-12 -14 -99 -18 -99 -5 0 21 87 42 103 25z m97 -39 c12 -12 12 -14 -6 -14 -30
0 -64 -29 -80 -66 -12 -29 -17 -32 -41 -25 -32 9 -51 5 -75 -17 -20 -16 -24
-57 -8 -67 6 -4 10 6 10 23 0 16 6 35 14 41 18 15 97 11 103 -6 3 -8 23 -12
59 -11 30 1 57 -1 61 -5 11 -12 -27 -44 -84 -73 -48 -23 -59 -25 -77 -14 -20
12 -20 12 -3 -7 21 -24 22 -37 2 -53 -11 -9 -15 -9 -15 -1 0 37 -130 70 -130
34 -1 -16 -2 -16 -15 1 -23 30 -18 46 17 58 28 10 29 12 12 19 -22 7 -44 66
-44 114 0 50 24 65 105 65 42 0 87 6 106 15 36 15 65 12 89 -11z m-910 -34
c-55 -50 -70 -54 -70 -19 0 32 48 69 89 69 l36 -1 -55 -49z m145 16 c19 -15
19 -15 -10 -15 -16 0 -48 4 -70 8 l-40 8 35 16 c35 15 46 13 85 -17z m1236 14
c18 -10 18 -12 -6 -38 -61 -64 -138 -280 -136 -379 0 -41 -10 -55 -24 -33 -4
6 -11 7 -17 4 -30 -19 -37 90 -13 194 18 77 51 142 104 210 42 53 57 60 92 42z
m-781 -30 c0 -5 -4 -10 -9 -10 -5 0 -7 -8 -5 -17 5 -16 -5 -18 -108 -18 -62 0
-162 -4 -223 -9 -60 -4 -107 -5 -103 -1 4 4 3 15 -2 25 -6 11 -5 17 3 18 7 0
35 5 62 10 69 13 385 15 385 2z m366 -15 c9 -14 15 -27 13 -28 -2 -2 -29 -16
-60 -32 -61 -31 -89 -29 -89 7 1 67 102 105 136 53z m446 -3 c-6 -2 -8 -11 -5
-20 4 -14 3 -15 -6 -2 -5 8 -13 11 -17 7 -4 -3 -1 -13 5 -21 10 -12 7 -23 -15
-55 -34 -52 -42 -46 -14 9 12 23 19 44 16 47 -9 10 -73 -143 -90 -214 -24
-107 -18 -111 9 -6 13 50 29 100 35 110 13 20 12 17 -16 -82 -8 -27 -14 -64
-14 -82 0 -22 -6 -36 -20 -43 -15 -8 -19 -17 -14 -35 4 -15 2 -25 -5 -25 -31
0 6 195 58 305 32 70 93 145 100 124 2 -7 -1 -15 -7 -17z m-1284 -10 c20 -26
14 -43 -28 -84 -23 -21 -37 -38 -32 -38 5 0 28 18 51 40 22 22 48 40 56 40 58
0 -70 -119 -129 -121 -29 0 -29 -1 -8 -9 25 -11 29 -32 7 -50 -12 -10 -15 -9
-15 5 0 14 -6 16 -32 11 -38 -7 -71 -35 -64 -53 7 -18 -19 -17 -33 1 -14 17
-1 49 27 65 9 6 12 11 6 11 -5 0 -20 -9 -32 -21 -24 -21 -25 -20 -36 33 -3 14
-9 33 -12 42 -4 11 -1 16 10 16 12 0 16 -11 18 -42 l1 -43 4 40 c4 38 18 65
33 65 4 0 5 -11 3 -24 -3 -13 -1 -26 4 -29 5 -3 9 6 8 21 0 26 7 32 85 65 l35
15 -46 -5 c-51 -6 -69 7 -47 34 33 40 138 50 166 15z m-664 6 c-5 -9 -2 -8 9
1 10 8 20 12 22 9 3 -3 9 -38 15 -79 9 -78 45 -190 87 -272 13 -27 22 -51 19
-54 -9 -9 -61 23 -58 36 1 7 -2 10 -8 6 -6 -3 -8 -11 -5 -16 4 -5 2 -9 -4 -9
-15 0 -33 38 -25 52 4 6 3 8 -4 5 -16 -11 -74 158 -78 231 -3 48 0 67 13 82
20 23 28 26 17 8z m460 -13 c8 -33 1 -45 -30 -45 -29 0 -32 24 -7 52 22 24 30
23 37 -7z m619 -25 l51 0 -32 -31 c-39 -38 -47 -64 -39 -129 l6 -49 -46 25
c-26 13 -64 27 -84 30 l-38 6 24 33 c14 17 28 47 31 66 10 60 12 62 45 55 18
-3 54 -6 82 -6z m-652 -36 c9 9 69 16 69 9 0 -7 -232 -95 -236 -90 -1 1 -5 16
-8 33 l-7 32 73 20 c62 17 75 17 89 6 9 -8 18 -12 20 -10z m483 -7 c4 -19 3
-26 -4 -22 -5 3 -10 1 -10 -5 0 -7 -9 -25 -21 -41 l-21 -29 -39 22 c-21 12
-39 25 -39 30 0 4 -8 8 -17 8 -15 0 -16 2 -3 10 13 9 13 10 0 10 -10 0 -7 7
10 20 20 16 72 25 136 25 1 0 4 -13 8 -28z m580 10 c-3 -7 1 -4 9 6 18 21 56
22 64 1 10 -27 -11 -36 -55 -24 -30 7 -40 15 -36 25 4 8 10 12 15 9 5 -3 7
-11 3 -17z m495 1 c18 -11 17 -13 -10 -56 -35 -55 -61 -130 -63 -183 0 -24 -6
-39 -13 -39 -7 0 -13 4 -13 9 0 5 -10 7 -22 3 -20 -5 -21 -3 -14 52 7 66 35
144 68 192 25 36 38 41 67 22z m-2029 -40 c0 -29 57 -195 76 -222 18 -26 18
-36 -2 -36 -8 0 -13 4 -10 8 3 5 -1 9 -9 9 -8 0 -11 -5 -8 -10 3 -5 0 -7 -8
-5 -8 3 -13 13 -11 22 2 9 -1 16 -5 15 -24 -4 -34 6 -53 58 -16 42 -19 67 -14
93 4 19 6 39 5 44 -1 4 1 17 4 27 9 27 35 24 35 -3z m2074 6 c3 -8 2 -13 -3
-10 -22 14 -81 -104 -81 -163 0 -36 -9 -63 -20 -56 -20 13 38 182 78 228 18
21 18 21 26 1z m-1250 -79 c16 -9 14 -13 -20 -35 -42 -27 -105 -121 -103 -155
0 -12 5 -7 11 15 9 30 11 32 18 15 9 -22 9 -22 30 47 6 21 25 49 41 63 89 74
198 -27 187 -173 l-4 -59 42 32 c49 38 87 49 114 35 26 -14 27 -14 39 21 9 26
8 36 -10 60 -20 29 -16 35 15 23 20 -8 22 -87 2 -106 -7 -8 -28 -48 -46 -89
-18 -41 -36 -78 -40 -83 -5 -4 -15 5 -24 22 -20 40 -20 49 2 55 11 3 9 5 -8 6
-14 0 -32 -4 -40 -10 -12 -9 -12 -10 4 -5 17 6 18 2 13 -35 -17 -128 -155
-194 -283 -135 -62 29 -109 86 -70 86 7 0 16 11 19 25 3 21 -4 33 -41 65 -25
22 -39 40 -32 40 8 0 32 -20 56 -45 23 -25 49 -45 58 -45 10 0 26 -5 37 -10
23 -13 23 -16 -1 56 -24 70 -40 104 -51 104 -5 0 1 -16 12 -35 12 -19 19 -40
16 -47 -2 -7 0 -23 4 -35 5 -14 5 -23 -1 -23 -6 0 -10 6 -10 13 0 9 -3 8 -9
-2 -13 -20 -41 28 -48 81 -3 24 -9 45 -13 48 -4 3 -22 38 -39 78 -30 68 -31
75 -17 91 9 10 16 24 16 33 0 8 21 29 48 45 l47 30 31 -26 c17 -14 39 -31 48
-36z m-390 1 c14 -47 23 -166 12 -155 -2 2 -9 38 -15 79 -6 41 -14 87 -17 103
-11 48 4 29 20 -27z m1602 -5 c-9 -16 -16 -39 -16 -50 0 -11 -5 -23 -11 -27
-8 -4 -9 1 -4 17 10 39 38 100 42 95 3 -2 -3 -18 -11 -35z m87 -23 c4 -10 7
-11 18 0 24 22 28 13 11 -28 -19 -45 -21 -45 -77 -26 -46 16 -53 34 -30 70 16
24 19 25 45 11 16 -8 30 -20 33 -27z m-1704 -92 c1 -109 -5 -92 -11 29 -3 55
-2 89 2 75 5 -14 8 -61 9 -104z m737 107 c7 -10 14 -24 14 -32 0 -8 8 -20 18
-27 16 -13 16 -14 -1 -8 -10 4 -26 -1 -37 -11 -12 -11 -26 -15 -37 -10 -16 6
-15 8 7 20 14 8 22 14 18 15 -4 0 -3 11 2 24 5 15 5 27 -3 35 -6 6 -7 11 -3
11 5 0 15 -8 22 -17z m163 -29 c15 -15 14 -16 -2 -10 -10 3 -34 6 -53 6 -25 0
-34 4 -34 16 0 14 7 15 37 11 20 -4 44 -14 52 -23z m-1371 -21 c5 -16 13 -35
17 -44 4 -10 0 -19 -10 -23 -9 -3 -13 -2 -10 4 3 6 1 10 -4 10 -6 0 -11 -4
-11 -10 0 -20 -37 -9 -50 15 -11 21 -11 29 0 50 19 35 55 33 68 -2z m2262 -20
c0 -12 -29 0 -33 15 -3 14 -6 13 -15 -8 -6 -14 -11 -19 -11 -12 -1 7 4 22 10
33 10 20 11 20 30 -2 10 -12 19 -24 19 -26z m-1614 27 c23 0 16 -14 -21 -37
-43 -28 -42 -28 -47 2 -6 27 16 48 40 40 8 -3 20 -5 28 -5z m722 -6 c12 -4 22
-13 22 -20 0 -10 -16 -14 -60 -14 -53 0 -60 2 -60 20 0 16 7 20 38 20 20 0 47
-3 60 -6z m-243 -28 c22 -12 39 -28 37 -36 -2 -11 0 -11 11 -1 12 9 16 8 21
-4 3 -9 2 -13 -4 -10 -6 3 -10 2 -10 -4 0 -5 6 -12 13 -15 6 -4 2 -4 -10 -2
-17 3 -20 0 -15 -13 5 -13 3 -14 -9 -4 -9 8 -20 9 -29 3 -8 -6 -26 -10 -40
-10 -20 0 -22 2 -10 10 8 5 10 10 5 10 -6 0 -11 10 -12 22 -1 11 -6 24 -11 27
-5 3 -11 13 -15 23 -12 35 20 37 78 4z m203 -75 c3 -16 0 -21 -9 -15 -9 5 -11
2 -6 -9 6 -16 -15 -41 -26 -30 -7 6 -11 -13 -8 -31 1 -5 -4 -13 -11 -17 -16
-11 -37 -12 -22 -1 6 4 14 19 18 35 4 19 13 27 29 28 19 1 19 2 3 6 -15 4 -16
7 -5 14 12 7 12 9 0 9 -11 0 -11 3 0 17 12 15 12 16 -4 10 -11 -4 -16 -3 -12
4 12 19 50 5 53 -20z m-94 -137 c-16 -13 -16 -15 -1 -10 11 3 17 0 17 -9 0 -8
-6 -14 -12 -12 -8 1 -12 -7 -11 -23 2 -18 0 -21 -6 -10 -16 28 -2 80 22 80 6
0 2 -7 -9 -16z m-100 -101 c4 -9 -4 -32 -20 -56 -14 -22 -24 -47 -21 -58 3
-11 1 -16 -4 -13 -5 3 -12 -2 -15 -10 -3 -9 -11 -16 -16 -16 -6 0 -2 12 7 28
l18 27 -26 -24 c-37 -34 -62 -102 -48 -130 19 -35 51 -25 105 32 28 29 43 41
36 27 -7 -14 -44 -58 -81 -98 -58 -61 -69 -78 -69 -107 0 -19 -4 -35 -8 -35
-5 0 -41 25 -81 55 -48 36 -92 60 -129 71 -31 8 -63 17 -69 19 -17 6 -5 33 18
46 11 5 17 14 15 18 -3 5 4 17 16 27 12 11 18 13 13 5 -5 -10 -4 -12 4 -7 6 4
9 11 7 15 -7 10 49 71 65 71 8 0 6 -6 -4 -18 -22 -24 -22 -42 1 -42 29 0 227
85 228 98 1 7 2 19 3 28 0 8 5 13 10 10 5 -4 12 7 16 24 7 33 19 39 29 13z
m37 -141 c-6 -2 -9 -7 -7 -11 3 -4 -1 -8 -9 -8 -19 0 -19 3 3 32 14 19 18 20
21 7 2 -9 -2 -18 -8 -20z m-426 -182 c-6 -18 -2 -20 37 -20 60 0 147 -47 132
-72 -3 -4 2 -5 11 -2 12 5 15 0 14 -22 -3 -39 10 -91 33 -137 10 -21 16 -43
12 -49 -4 -6 -3 -8 3 -5 6 4 17 0 24 -9 18 -22 -3 -34 -63 -34 -68 0 -78 6
-78 51 0 21 4 39 8 39 5 0 9 7 9 15 0 8 -4 12 -9 9 -4 -3 -22 5 -39 16 -16 12
-33 20 -36 16 -6 -6 36 -45 50 -46 4 0 7 -16 7 -35 0 -32 -2 -35 -18 -26 -13
7 -23 6 -32 -2 -12 -10 -12 -9 -2 4 14 19 6 28 -46 49 -26 10 -30 15 -21 26 7
8 9 29 5 51 -7 42 -8 54 -5 112 1 32 -4 45 -26 65 l-28 26 32 0 c28 0 31 -3
26 -20z m245 -162 c0 -23 24 -71 55 -114 22 -29 23 -31 4 -42 -16 -10 -22 -6
-45 34 -36 61 -53 111 -53 154 l0 35 19 -24 c11 -13 20 -32 20 -43z m-230
-134 c6 -14 10 -28 10 -31 0 -9 -31 19 -41 39 -7 14 -6 18 6 18 8 0 20 -12 25
-26z m130 -115 c-5 -9 -5 -21 0 -28 6 -6 2 -5 -7 3 -13 12 -14 18 -3 30 8 11
9 16 1 16 -6 0 -11 8 -11 17 0 15 2 14 14 -2 9 -13 11 -26 6 -36z m65 43 c12
-8 55 -67 55 -75 0 -3 -12 -2 -27 2 -15 4 -37 23 -50 44 -21 33 -21 37 -6 37
10 0 23 -4 28 -8z m102 2 c-3 -4 -2 -15 3 -24 7 -13 5 -21 -4 -29 -11 -10 -16
-8 -21 9 -6 19 8 50 23 50 3 0 2 -3 -1 -6z m121 -91 c2 -15 -5 -26 -25 -37
-15 -8 -24 -15 -20 -16 5 0 17 5 28 10 15 8 19 7 19 -4 0 -9 -9 -20 -20 -26
-28 -15 -112 -9 -118 8 -3 11 0 12 16 3 25 -13 32 -14 32 -3 0 4 -14 12 -32
17 -38 12 -50 35 -14 28 34 -7 96 15 96 34 0 23 35 11 38 -14z m-173 -2 c3 -5
0 -13 -6 -17 -9 -5 -7 -11 5 -20 16 -12 16 -13 -5 -24 -14 -8 -44 -10 -78 -7
l-56 5 35 -15 c31 -14 40 -13 82 0 40 13 49 13 59 1 14 -17 101 -19 130 -4 10
6 19 18 19 26 0 9 7 14 18 12 9 -2 17 -12 17 -23 0 -24 -48 -43 -115 -46 l-45
-2 55 -7 c39 -5 61 -3 76 7 22 14 54 9 54 -9 0 -5 -4 -6 -10 -3 -5 3 -10 2
-10 -2 0 -5 10 -13 23 -18 16 -7 21 -17 19 -35 -2 -20 -1 -22 7 -10 8 12 12 9
17 -17 4 -18 10 -33 15 -33 5 0 9 -7 9 -15 0 -8 -5 -15 -12 -15 -6 0 -8 -3 -5
-6 3 -4 -4 -15 -17 -25 -27 -21 -41 -25 -30 -8 4 8 0 8 -15 0 -11 -7 -21 -14
-21 -17 0 -3 6 -2 13 2 9 5 9 4 0 -6 -12 -13 -37 -4 -28 11 3 5 -1 6 -9 3 -14
-6 -43 32 -32 43 3 3 1 14 -5 24 -8 16 -6 19 11 19 16 0 20 -4 15 -19 -3 -11
1 -24 12 -32 16 -13 17 -12 4 4 -11 14 -11 20 -1 32 7 8 19 15 27 15 10 0 12
6 8 23 -12 37 -11 42 8 41 15 -2 15 1 -5 20 -26 25 -54 27 -50 3 2 -13 -3 -16
-25 -12 -15 2 -45 7 -65 10 -20 3 -39 11 -41 18 -3 7 -6 4 -6 -5 -1 -10 -6
-18 -12 -18 -6 0 -9 7 -5 15 3 9 -4 25 -16 37 -15 15 -20 17 -15 5 10 -26 -29
-31 -94 -10 -62 19 -68 30 -28 50 23 12 23 13 3 13 -20 0 -52 26 -43 35 3 2
21 0 41 -4 40 -9 88 -4 88 10 0 12 27 12 35 0z m-90 -115 c35 -15 47 -36 21
-36 -16 0 -106 39 -106 45 0 10 53 4 85 -9z m-57 -20 c33 -17 66 -61 57 -76
-4 -6 -11 -8 -16 -4 -5 3 -7 9 -5 13 6 8 -43 34 -116 61 -37 14 -45 15 -41 4
7 -18 -52 -20 -63 -2 -4 7 -3 8 4 4 7 -4 12 -2 12 4 0 6 4 9 8 6 4 -2 14 -1
22 4 20 12 103 4 138 -14z m159 7 c-4 -3 1 -15 10 -26 10 -11 14 -18 8 -15 -5
3 -16 0 -23 -8 -7 -8 -8 -14 -2 -14 5 0 10 -7 10 -16 0 -14 -2 -15 -17 -3 -16
13 -17 12 -5 -3 8 -9 20 -14 28 -11 26 10 14 -5 -21 -27 -55 -34 -101 -7 -57
33 10 10 22 14 27 10 4 -5 5 -3 2 3 -4 6 2 19 13 29 13 11 18 25 14 37 -3 11
0 18 7 18 7 0 9 -3 6 -7z m-323 -43 c11 0 33 5 50 11 23 8 39 8 61 -1 l30 -12
-25 -10 c-38 -14 -60 -39 -61 -67 l0 -26 -16 23 c-16 23 -40 32 -27 10 4 -7
-5 -2 -19 11 -15 14 -29 22 -32 19 -3 -3 8 -17 24 -31 35 -29 127 -52 171 -42
16 4 55 6 87 6 48 0 64 5 93 28 23 18 48 28 73 29 33 1 37 -1 37 -24 0 -29 26
-84 40 -84 6 0 10 -4 10 -10 0 -11 -140 -14 -178 -3 -18 4 -21 8 -10 15 10 8
9 9 -4 5 -10 -4 -27 5 -42 20 -14 14 -26 21 -26 16 0 -5 13 -21 28 -36 63 -60
238 -58 329 3 l43 29 0 -25 c0 -57 -47 -92 -154 -114 -142 -29 -253 22 -257
118 -1 27 -1 27 -8 -3 l-7 -30 -70 1 c-81 2 -153 29 -178 66 -17 27 -18 100
-1 90 6 -3 4 1 -2 10 -15 17 -5 34 11 18 5 -5 19 -10 30 -10z m276 10 c0 -5
-4 -10 -10 -10 -5 0 -10 -5 -10 -10 0 -6 -10 -25 -22 -43 -13 -18 -23 -33 -24
-35 -3 -8 -121 -11 -133 -3 -16 10 -7 46 9 36 6 -4 9 -2 8 3 -2 6 1 10 6 10 5
0 12 6 16 12 4 7 13 9 19 6 6 -4 9 -11 6 -16 -3 -5 -1 -11 4 -15 6 -3 8 6 5
21 l-5 26 29 -23 c16 -13 27 -28 24 -34 -3 -5 5 -1 17 10 13 11 20 27 18 37
-3 10 -2 16 3 13 4 -3 10 2 14 10 6 17 26 21 26 5z m202 -26 c25 -13 32 -14
39 -2 6 9 9 7 9 -9 0 -23 -16 -40 -22 -23 -1 5 -40 11 -85 13 -55 1 -83 6 -83
14 0 6 6 14 13 16 27 11 100 6 129 -9z"/>
<path d="M1560 1868 c0 -32 -27 -50 -76 -50 -19 0 -34 -5 -34 -10 0 -20 82 -1
108 25 20 20 22 28 13 43 -9 17 -10 16 -11 -8z"/>
<path d="M964 1485 c-9 -36 15 -122 43 -156 34 -40 46 -28 38 40 -13 107 -65
181 -81 116z m37 -7 c7 -13 13 -45 14 -73 1 -27 6 -59 10 -70 8 -18 7 -18 -8
-7 -20 17 -39 71 -39 115 -1 65 4 71 23 35z"/>
<path d="M683 1407 c-31 -34 -36 -47 -19 -47 15 0 52 57 43 66 -2 2 -13 -6
-24 -19z"/>
<path d="M717 1322 c-18 -20 -22 -42 -8 -42 5 0 14 14 20 30 12 35 10 37 -12
12z"/>
<path d="M1470 1303 c0 -5 9 -23 21 -42 20 -34 47 -32 33 2 -6 17 -54 52 -54
40z"/>
</g>
</svg>
